HIERARCHY
ROOT Hips
{
	OFFSET	0.00	0.00	0.00
	CHANNELS 6 Xposition Yposition Zposition Zrotation Xrotation Yrotation
	JOINT LeftUpLeg
	{
		OFFSET	 0.126116	-0.014019	-0.065224
		CHANNELS 3 Zrotation Xrotation Yrotation
		JOINT LeftLeg
		{
			OFFSET	 0.000000	 0.000000	 0.569914
			CHANNELS 3 Zrotation Xrotation Yrotation
			JOINT LeftFoot
			{
				OFFSET	 0.000000	 0.000000	 0.544423
				CHANNELS 3 Zrotation Xrotation Yrotation
				JOINT LeftToeBase
				{
					OFFSET	 0.000000	 0.000000	 0.207117
					CHANNELS 3 Zrotation Xrotation Yrotation
					End Site
					{
						OFFSET	 0.000000	 0.000000	 0.207117
					}
				}
			}
		}
	}
	JOINT RightUpLeg
	{
		OFFSET	-0.124023	-0.008373	-0.065224
		CHANNELS 3 Zrotation Xrotation Yrotation
		JOINT RightLeg
		{
			OFFSET	 0.000000	 0.000000	 0.570047
			CHANNELS 3 Zrotation Xrotation Yrotation
			JOINT RightFoot
			{
				OFFSET	 0.000000	 0.000000	 0.544354
				CHANNELS 3 Zrotation Xrotation Yrotation
				JOINT RightToeBase
				{
					OFFSET	 0.000000	 0.000000	 0.207540
					CHANNELS 3 Zrotation Xrotation Yrotation
					End Site
					{
						OFFSET	 0.000000	 0.000000	 0.207540
					}
				}
			}
		}
	}
	JOINT Spine
	{
		OFFSET	 0.000184	-0.007763	 0.117403
		CHANNELS 3 Zrotation Xrotation Yrotation
		JOINT Spine1
		{
			OFFSET	 0.000000	 0.000000	 0.137269
			CHANNELS 3 Zrotation Xrotation Yrotation
			JOINT Spine2
			{
				OFFSET	 0.000000	 0.000000	 0.156879
				CHANNELS 3 Zrotation Xrotation Yrotation
				JOINT LeftShoulder
				{
					OFFSET	 0.080501	-0.002496	 0.160144
					CHANNELS 3 Zrotation Xrotation Yrotation
					JOINT LeftArm
					{
						OFFSET	 0.000000	 0.000000	 0.164363
						CHANNELS 3 Zrotation Xrotation Yrotation
						JOINT LeftForeArm
						{
							OFFSET	 0.000000	 0.000000	 0.364576
							CHANNELS 3 Zrotation Xrotation Yrotation
							JOINT LeftHand
							{
								OFFSET	 0.000000	 0.000000	 0.360812
								CHANNELS 3 Zrotation Xrotation Yrotation
								JOINT LeftHandIndex1
								{
									OFFSET	 0.000000	 0.000000	 0.086006
									CHANNELS 3 Zrotation Xrotation Yrotation
									JOINT LeftHandIndex2
									{
										OFFSET	 0.000000	 0.000000	 0.047237
										CHANNELS 3 Zrotation Xrotation Yrotation
										JOINT LeftHandIndex3
										{
											OFFSET	-0.004284	-0.000551	 0.038165
											CHANNELS 3 Zrotation Xrotation Yrotation
											End Site
											{
												OFFSET	-0.004284	-0.000551	 0.038165
											}
										}
									}
								}
							}
						}
					}
				}
				JOINT Neck
				{
					OFFSET	 0.000000	 0.000000	 0.176489
					CHANNELS 3 Zrotation Xrotation Yrotation
					JOINT Head
					{
						OFFSET	 0.000000	-0.001747	 0.077940
						CHANNELS 3 Zrotation Xrotation Yrotation
						End Site
						{
							OFFSET	 0.000000	-0.001747	 0.077940
						}
					}
				}
				JOINT RightShoulder
				{
					OFFSET	-0.080363	 0.000306	 0.159706
					CHANNELS 3 Zrotation Xrotation Yrotation
					JOINT RightArm
					{
						OFFSET	 0.000000	 0.000000	 0.164196
						CHANNELS 3 Zrotation Xrotation Yrotation
						JOINT RightForeArm
						{
							OFFSET	 0.000000	 0.000000	 0.365611
							CHANNELS 3 Zrotation Xrotation Yrotation
							JOINT RightHand
							{
								OFFSET	 0.000000	 0.000000	 0.360648
								CHANNELS 3 Zrotation Xrotation Yrotation
								JOINT RightHandIndex1
								{
									OFFSET	 0.000000	 0.000000	 0.069977
									CHANNELS 3 Zrotation Xrotation Yrotation
									JOINT RightHandIndex2
									{
										OFFSET	 0.000000	 0.000000	 0.052305
										CHANNELS 3 Zrotation Xrotation Yrotation
										JOINT RightHandIndex3
										{
											OFFSET	 0.009002	-0.000782	 0.042196
											CHANNELS 3 Zrotation Xrotation Yrotation
											End Site
											{
												OFFSET	 0.009002	-0.000782	 0.042196
											}
										}
									}
								}
							}
						}
					}
				}
			}
		}
	}
}
MOTION
Frames:    4
Frame Time: 0.03333334
-0.353961	 0.086062	 1.193195	-177.112900	 3.769885	 20.831230	 18.822530	-22.286030	 162.446300	-12.242440	-61.539340	-11.298880	 148.772700	 69.858870	-164.252500	-2.385833	 28.452760	 0.000004	-24.467590	-41.382950	 142.012700	 6.085145	-53.180200	 3.655156	-12.611520	 69.783120	 37.536270	 2.384659	 28.388700	-0.000001	 48.499840	-23.169220	-6.539626	 60.813550	 29.647650	 10.775810	-5.993848	-3.372323	-14.337000	-91.776170	 78.527380	 180.000000	 14.512520	 55.456300	-38.130420	-1.981074	-2.614122	-89.887140	 2.743647	-25.143290	-1.265660	-4.130319	 21.525730	 0.991547	-5.167930	 0.731704	 3.519349	-1.378229	 35.397820	-2.634230	-20.010110	 6.694880	 8.556345	-23.425630	-19.419920	-17.822840	 89.782320	 78.392830	 179.970300	-164.791800	 55.125950	-155.073900	-20.556150	-6.885695	 24.865240	-148.786200	-37.384130	 155.084100	 5.716227	 19.173190	-3.685159	 5.027444	 0.246877	-9.377972	-2.350882	 35.473990	 5.254307
-0.357213	 0.099123	 1.196756	-176.225800	 4.089382	 20.027590	 19.979760	-21.251230	 162.909300	-12.282130	-60.032370	-11.172840	 148.772900	 70.153790	-163.926300	-2.385833	 28.452760	 0.000004	-22.974340	-41.558110	 143.874400	 5.780995	-53.037430	 3.404800	-10.918280	 70.673920	 34.875100	 2.384659	 28.388700	-0.000001	 46.186880	-21.846520	-6.876164	 58.471730	 28.985840	 12.506230	-5.331076	-3.100593	-14.038660	-91.776220	 78.527360	-180.000000	 17.464100	 57.977470	-42.138510	-1.780671	-2.759178	-85.738370	 3.275542	-25.717180	-1.095890	-4.130319	 21.525730	 0.991547	-5.167930	 0.731704	 3.519349	-1.378229	 35.397820	-2.634230	-19.488190	 6.514901	 8.865915	-22.864780	-19.551360	-17.525740	 89.782310	 78.388940	 179.971700	-165.670500	 64.653940	-147.192500	-20.524790	-4.526047	 17.000200	-133.586200	-38.901230	 160.145100	 5.716227	 19.173190	-3.685159	 5.027444	 0.246877	-9.377972	-2.350882	 35.473990	 5.254307
-0.363792	 0.120307	 1.202952	-175.109400	 4.516674	 18.690610	 21.808370	-18.926690	 163.802600	-11.824710	-57.132620	-10.451180	 147.899000	 70.218930	-162.846600	-2.385833	 28.452760	 0.000004	-21.260360	-41.215280	 146.792400	 5.772439	-53.016010	 3.396998	-8.051592	 71.951890	 30.176650	 2.384659	 28.388700	-0.000001	 42.656910	-19.817570	-7.327618	 54.856030	 27.924890	 15.048790	-4.516029	-2.958724	-13.461190	-91.776180	 78.527380	-180.000000	 16.756280	 58.634720	-41.070540	-1.729963	-3.044220	-85.186120	 4.145164	-26.530290	-0.787894	-4.130319	 21.525730	 0.991547	-5.167930	 0.731704	 3.519349	-1.378229	 35.397820	-2.634230	-18.400880	 7.104695	 7.657090	-22.335020	-21.526700	-15.194760	 89.782320	 78.381820	 179.975000	-146.303600	 88.242980	-154.138800	-19.478000	-0.119374	 0.499862	-102.575500	-44.872610	 176.808400	 5.716227	 19.173190	-3.685159	 5.027444	 0.246877	-9.377972	-2.350882	 35.473990	 5.254307
-0.373485	 0.137940	 1.209086	-174.368400	 4.350456	 17.405650	 23.723050	-16.669820	 165.524500	-11.071770	-54.201950	-9.479850	 144.601300	 70.741170	-159.539300	-2.385833	 28.452760	 0.000004	-19.744710	-40.796070	 149.835600	 6.268900	-52.798100	 3.783595	-7.199450	 72.531620	 27.926270	 2.384659	 28.388700	-0.000001	 39.844270	-17.479310	-6.854626	 51.282620	 25.273100	 18.335600	-3.708942	-1.876437	-13.683590	-91.776230	 78.527380	-180.000000	 10.758620	 56.661670	-33.555890	-1.813694	-3.151373	-86.865190	 4.694886	-27.195560	-0.599820	-4.130319	 21.525730	 0.991547	-5.167930	 0.731704	 3.519349	-1.378229	 35.397820	-2.634230	-17.711550	 7.819327	 7.606476	-22.121650	-22.521380	-15.379710	 89.782290	 78.372700	 179.977300	 12.431540	 61.382100	 40.058960	-17.630300	-2.410488	 11.601360	-63.255730	-36.995410	-153.732400	 5.716227	 19.173190	-3.685159	 5.027444	 0.246877	-9.377972	-2.350882	 35.473990	 5.254307
